<svg width="524" height="39" viewBox="0 0 524 39" fill="none" xmlns="http://www.w3.org/2000/svg">
<rect width="523.731" height="38.1398" transform="translate(0 0.0567932)" fill="#CB81FF"/>
<path d="M10.0277 7.50287H13.309L19.476 23.9531L25.6283 7.50287H28.9095L20.765 28.831H18.1576L10.0277 7.50287ZM8.53357 7.50287H11.6537L12.1957 21.7411V28.831H8.53357V7.50287ZM27.2836 7.50287H30.4183V28.831H26.7416V21.7411L27.2836 7.50287ZM48.7435 25.916V28.831H37.4203V25.916H48.7435ZM38.4603 7.50287V28.831H34.7836V7.50287H38.4603ZM47.264 16.4091V19.2802H37.4203V16.4091H47.264ZM48.6703 7.50287V10.4326H37.4203V7.50287H48.6703ZM58.2211 19.6025L50.3256 7.50287H54.7933L59.9935 16.4238H63.8314L63.3187 19.6025H58.2211ZM60.0521 19.1337L54.4564 28.831H49.8861L57.3129 16.6435L60.0521 19.1337ZM65.9554 7.50287V28.831H62.2933V7.50287H65.9554ZM77.7767 7.50287L69.9398 19.6025H64.9154L64.4027 16.4238H68.1674L73.2943 7.50287H77.7767ZM73.6312 28.831L68.1234 19.1337L70.8773 16.6435L78.2015 28.831H73.6312ZM94.1244 7.50287V10.4326H84.222V28.831H80.5599V7.50287H94.1244ZM102.591 10.3447L96.2191 28.831H92.3666L100.394 7.50287H102.855L102.591 10.3447ZM107.923 28.831L101.536 10.3447L101.258 7.50287H103.734L111.79 28.831H107.923ZM107.616 20.9208V23.8359H96.014V20.9208H107.616ZM128.431 7.50287V10.4326H118.206V7.50287H128.431ZM131.244 7.50287V28.831H127.567V7.50287H131.244ZM117.474 7.50287H121.121L120.609 18.0937C120.54 19.6464 120.409 21.0136 120.213 22.1953C120.018 23.3769 119.754 24.3876 119.422 25.2275C119.09 26.0673 118.67 26.7558 118.162 27.2929C117.655 27.8203 117.044 28.2109 116.331 28.4648C115.628 28.7089 114.803 28.831 113.856 28.831H112.918V25.916L113.49 25.872C114.007 25.8329 114.452 25.7109 114.823 25.5058C115.203 25.291 115.526 24.9785 115.789 24.5683C116.053 24.1484 116.273 23.6064 116.449 22.9423C116.624 22.2783 116.761 21.4677 116.859 20.5107C116.966 19.5536 117.044 18.4355 117.093 17.1562L117.474 7.50287ZM144.222 10.3447L137.85 28.831H133.997L142.025 7.50287H144.486L144.222 10.3447ZM149.554 28.831L143.167 10.3447L142.889 7.50287H145.365L153.421 28.831H149.554ZM149.246 20.9208V23.8359H137.645V20.9208H149.246ZM159.544 7.50287V28.831H155.882V7.50287H159.544ZM172.376 7.50287L163.704 19.6611H158.504L158.006 16.4677H161.668L167.879 7.50287H172.376ZM168.626 28.831L161.727 19.1044L164.1 16.2773L173.036 28.831H168.626ZM183.919 7.50287V28.831H180.272V7.50287H183.919ZM190.614 7.50287V10.4326H173.636V7.50287H190.614ZM197.059 22.8398L206.522 7.50287H210.199V28.831H206.522V13.4794L197.059 28.831H193.397V7.50287H197.059V22.8398ZM214.154 7.50287H217.83V14.1093C217.83 15.1152 217.982 15.9062 218.285 16.4824C218.587 17.0488 219.046 17.4492 219.661 17.6835C220.286 17.9179 221.063 18.0351 221.991 18.0351C222.44 18.0351 222.913 18.0156 223.411 17.9765C223.91 17.9374 224.408 17.8837 224.906 17.8154C225.413 17.7372 225.902 17.6494 226.37 17.5517C226.839 17.4443 227.269 17.3271 227.66 17.2001V20.1152C227.279 20.2324 226.859 20.3447 226.4 20.4521C225.951 20.5595 225.482 20.6523 224.994 20.7304C224.505 20.7988 224.007 20.8525 223.499 20.8915C222.992 20.9306 222.489 20.9501 221.991 20.9501C220.379 20.9501 218.988 20.7206 217.816 20.2617C216.644 19.7929 215.741 19.0556 215.106 18.0497C214.471 17.0439 214.154 15.7304 214.154 14.1093V7.50287ZM226.825 7.50287H230.501V28.831H226.825V7.50287ZM248.87 25.916V28.831H237.547V25.916H248.87ZM238.587 7.50287V28.831H234.911V7.50287H238.587ZM247.391 16.4091V19.2802H237.547V16.4091H247.391ZM248.797 7.50287V10.4326H237.547V7.50287H248.797ZM264.471 21.8876H268.133C268.016 23.2841 267.625 24.5292 266.961 25.623C266.297 26.707 265.365 27.5615 264.163 28.1865C262.962 28.8115 261.502 29.124 259.784 29.124C258.465 29.124 257.279 28.8896 256.224 28.4208C255.169 27.9423 254.266 27.2685 253.514 26.3994C252.762 25.5204 252.186 24.4609 251.786 23.2206C251.395 21.9804 251.2 20.5937 251.2 19.0605V17.288C251.2 15.7548 251.4 14.3681 251.8 13.1279C252.21 11.8876 252.796 10.8281 253.558 9.94916C254.32 9.06049 255.233 8.38177 256.297 7.91302C257.371 7.44427 258.578 7.2099 259.915 7.2099C261.615 7.2099 263.05 7.5224 264.222 8.1474C265.394 8.7724 266.302 9.63666 266.947 10.7402C267.601 11.8437 268.001 13.1083 268.148 14.5341H264.486C264.388 13.6161 264.173 12.83 263.841 12.1757C263.519 11.5214 263.04 11.0234 262.406 10.6816C261.771 10.33 260.941 10.1542 259.915 10.1542C259.076 10.1542 258.343 10.3105 257.718 10.623C257.093 10.9355 256.571 11.3945 256.151 11.9999C255.731 12.6054 255.413 13.3525 255.199 14.2411C254.994 15.1201 254.891 16.1259 254.891 17.2587V19.0605C254.891 20.1347 254.984 21.1113 255.169 21.9902C255.365 22.8593 255.658 23.6064 256.048 24.2314C256.449 24.8564 256.956 25.3398 257.572 25.6816C258.187 26.0234 258.924 26.1943 259.784 26.1943C260.828 26.1943 261.673 26.0283 262.318 25.6962C262.972 25.3642 263.465 24.8808 263.797 24.246C264.139 23.6015 264.364 22.8154 264.471 21.8876ZM275.208 7.50287V28.831H271.546V7.50287H275.208ZM288.04 7.50287L279.369 19.6611H274.168L273.67 16.4677H277.332L283.543 7.50287H288.04ZM284.29 28.831L277.391 19.1044L279.764 16.2773L288.7 28.831H284.29ZM299.115 10.3447L292.743 28.831H288.89L296.917 7.50287H299.378L299.115 10.3447ZM304.447 28.831L298.06 10.3447L297.782 7.50287H300.257L308.314 28.831H304.447ZM304.139 20.9208V23.8359H292.537V20.9208H304.139ZM322.259 20.8329H316.385L314.935 20.2324C313.324 19.7245 312.088 18.9531 311.229 17.9179C310.37 16.8828 309.94 15.579 309.94 14.0068C309.94 12.6005 310.252 11.414 310.877 10.4472C311.502 9.48041 312.391 8.74799 313.543 8.24994C314.705 7.75189 316.078 7.50287 317.66 7.50287H324.823V28.831H321.131V10.4326H317.66C316.292 10.4326 315.277 10.7646 314.613 11.4286C313.949 12.0927 313.617 13.0107 313.617 14.1826C313.617 14.9833 313.763 15.6718 314.056 16.248C314.359 16.8144 314.803 17.2538 315.389 17.5663C315.985 17.8691 316.722 18.0204 317.601 18.0204H322.259V20.8329ZM317.777 19.1923L312.826 28.831H308.87L313.88 19.1923H317.777ZM344.876 10.3447L338.504 28.831H334.652L342.679 7.50287H345.14L344.876 10.3447ZM350.208 28.831L343.822 10.3447L343.543 7.50287H346.019L354.076 28.831H350.208ZM349.901 20.9208V23.8359H338.299V20.9208H349.901ZM370.555 16.4091V19.3242H359.232V16.4091H370.555ZM360.14 7.50287V28.831H356.463V7.50287H360.14ZM373.382 7.50287V28.831H369.72V7.50287H373.382ZM386.331 10.3447L379.959 28.831H376.107L384.134 7.50287H386.595L386.331 10.3447ZM391.663 28.831L385.277 10.3447L384.998 7.50287H387.474L395.531 28.831H391.663ZM391.356 20.9208V23.8359H379.754V20.9208H391.356ZM412.171 7.50287V10.4326H401.947V7.50287H412.171ZM414.984 7.50287V28.831H411.307V7.50287H414.984ZM401.214 7.50287H404.862L404.349 18.0937C404.281 19.6464 404.149 21.0136 403.953 22.1953C403.758 23.3769 403.495 24.3876 403.162 25.2275C402.83 26.0673 402.411 26.7558 401.903 27.2929C401.395 27.8203 400.785 28.2109 400.072 28.4648C399.369 28.7089 398.543 28.831 397.596 28.831H396.659V25.916L397.23 25.872C397.747 25.8329 398.192 25.7109 398.563 25.5058C398.944 25.291 399.266 24.9785 399.53 24.5683C399.793 24.1484 400.013 23.6064 400.189 22.9423C400.365 22.2783 400.501 21.4677 400.599 20.5107C400.706 19.5536 400.785 18.4355 400.833 17.1562L401.214 7.50287ZM423.026 22.8398L432.489 7.50287H436.165V28.831H432.489V13.4794L423.026 28.831H419.364V7.50287H423.026V22.8398ZM448.91 7.50287V28.831H445.262V7.50287H448.91ZM455.604 7.50287V10.4326H438.626V7.50287H455.604ZM462.049 22.8398L471.512 7.50287H475.189V28.831H471.512V13.4794L462.049 28.831H458.387V7.50287H462.049V22.8398ZM483.333 7.50287V28.831H479.671V7.50287H483.333ZM496.165 7.50287L487.494 19.6611H482.293L481.795 16.4677H485.457L491.668 7.50287H496.165ZM492.415 28.831L485.516 19.1044L487.889 16.2773L496.825 28.831H492.415ZM507.24 10.3447L500.868 28.831H497.015L505.042 7.50287H507.503L507.24 10.3447ZM512.572 28.831L506.185 10.3447L505.907 7.50287H508.382L516.439 28.831H512.572ZM512.264 20.9208V23.8359H500.662V20.9208H512.264Z" fill="#201B10"/>
</svg>
